<svg width="12" height="12" viewBox="0 0 12 12" fill="none" xmlns="http://www.w3.org/2000/svg">
<path d="M7.14506 8.84812C6.30875 8.53749 5.44854 8.48971 4.66001 8.70476C4.11043 8.84813 3.58475 9.13486 3.10685 9.49329L2.77232 9.78003L2.67674 9.8756L2.89179 10.0668C2.91569 10.0668 2.91569 10.0907 2.93959 10.1146C2.98738 10.1623 3.03517 10.1862 3.10685 10.234L3.25021 10.3296L3.39358 10.2101C3.41748 10.1862 3.46527 10.1384 3.51306 10.1146C3.94316 9.75613 4.42106 9.51718 4.92285 9.39771C5.56801 9.23044 6.26095 9.25434 6.9539 9.51718C7.52737 9.73223 8.69822 9.99508 10.108 9.39771L10.1558 9.37381L10.2275 9.30213C10.2275 9.27824 10.2514 9.27823 10.2753 9.25434C10.3947 9.11097 10.5142 8.9676 10.6098 8.80034L11.0877 8.0596L10.3231 8.4897C9.20001 9.11097 8.17254 9.23044 7.14506 8.84812Z" fill="#121212"/>
<path d="M3.87146 6.26745C4.51662 6.10019 5.20957 6.12408 5.90252 6.38693C6.66715 6.67366 8.62652 7.07987 10.8248 5.09661L11.1833 4.73819L11.2072 4.71429L11.3027 4.61872L11.2549 4.49924C11.231 4.40366 11.1833 4.28419 11.1355 4.16472L11.016 3.83018L10.777 4.06913C10.7531 4.11692 10.7054 4.14082 10.6576 4.18861C9.6062 5.26387 7.98136 6.36303 6.11757 5.69398C5.28125 5.38335 4.42104 5.33556 3.63251 5.55061C2.86788 5.76566 2.19883 6.17187 1.57757 6.74535V6.72145L1.21914 7.10377C1.21914 7.12766 1.19525 7.12767 1.17136 7.15156L1.09967 7.22324L1.12357 7.31882C1.14746 7.43829 1.19525 7.55777 1.21914 7.67724L1.36251 8.05956L1.60146 7.74893C1.62536 7.70114 1.67314 7.67724 1.69704 7.62946C2.19883 7.17546 2.89178 6.53029 3.87146 6.26745Z" fill="#121212"/>
<path d="M1.55367 5.83735C2.10325 5.26388 2.72451 4.90546 3.39356 4.7143C4.03872 4.54703 4.73167 4.57093 5.42462 4.83377C7.57515 5.6223 9.43894 4.33198 10.2514 3.63903L10.562 3.32841L10.6815 3.23282L10.5859 3.08946C10.5142 3.01777 10.4664 2.92219 10.3947 2.82661L10.2514 2.63545L10.0841 2.80272C10.0602 2.82661 10.0124 2.8744 9.98852 2.8983C8.98494 3.85409 7.43178 4.83377 5.66357 4.16472C4.82725 3.85409 3.96704 3.8063 3.17851 4.02135C2.67672 4.16472 2.19883 4.40367 1.72093 4.7143L1.21914 5.12051C1.17135 5.1683 1.14746 5.1922 1.09967 5.23999L1.05188 5.28777V5.35946C1.02799 5.52672 1.02799 5.69399 1.00409 5.83735L0.980194 6.43472L1.38641 6.00461C1.4342 5.95682 1.48199 5.88514 1.55367 5.83735Z" fill="#121212"/>
<path d="M7.83796 10.4729L7.79016 10.6163L7.83796 10.4729C7.76627 10.449 7.71849 10.4251 7.6468 10.4012C6.81048 10.0906 5.95027 10.0428 5.16174 10.2579C4.99448 10.3056 4.82722 10.3534 4.65996 10.4251L4.08648 10.688L3.94312 10.7596L4.42101 10.9269C4.56438 10.9747 4.70774 11.0225 4.85111 11.0703L4.92279 11.0942L4.99448 11.0703C5.06617 11.0464 5.13785 10.9986 5.20953 10.9986C5.25732 10.9986 5.30511 10.9747 5.3529 10.9508C5.92638 10.8074 6.54764 10.8074 7.21669 11.0225C7.28838 11.0464 7.33617 11.0703 7.40785 11.0942L7.52733 11.142L7.59901 11.1181C7.76627 11.0703 7.95743 11.0225 8.1008 10.9508L8.76985 10.7118L8.0769 10.5446C8.00522 10.5207 7.90964 10.4968 7.83796 10.4729Z" fill="#121212"/>
<path d="M11.4938 5.52687L11.1354 5.88529C11.0876 5.93308 11.0398 5.98087 10.992 6.02866C10.0124 6.96056 8.4353 7.96413 6.66708 7.29508C5.83077 6.98445 4.97056 6.93667 4.18203 7.15172C3.4413 7.36677 2.77224 7.74908 2.17487 8.32256L1.86424 8.65708L1.76866 8.77656L1.86424 8.91993C1.93592 9.01551 1.98372 9.08719 2.03151 9.18277L2.17487 9.39782L2.34213 9.18277C2.36603 9.15888 2.41382 9.11108 2.43771 9.08719C3.01119 8.46592 3.63245 8.08361 4.34929 7.89245C4.99445 7.72519 5.6874 7.74908 6.38034 8.01192C6.97771 8.22698 7.59898 8.29867 8.22024 8.22698C9.3194 8.10751 10.4186 7.48624 11.231 6.7933C11.2788 6.74551 11.3266 6.72161 11.3743 6.67382L11.446 6.60213V6.53045C11.446 6.38708 11.4699 6.21982 11.4699 6.07645L11.4938 5.52687Z" fill="#121212"/>
<path d="M2.41393 3.32859L2.34225 3.18522L2.41393 3.32859C2.5573 3.25691 2.72457 3.20912 2.86794 3.16133C3.51309 2.99406 4.20604 3.01796 4.89899 3.2808C5.35299 3.44806 5.80699 3.51975 6.30878 3.51975C7.31236 3.51975 8.31593 3.16133 9.24783 2.46838L9.60625 2.18164L9.72573 2.08606L9.51067 1.9188C9.43899 1.84711 9.34341 1.77543 9.24783 1.72764L9.10446 1.63206L8.98499 1.72764C8.9372 1.75154 8.9133 1.79933 8.86551 1.82322C7.59909 2.77901 6.33267 3.04185 5.13794 2.58785C4.27773 2.27722 3.41751 2.20554 2.5573 2.46838C2.48562 2.49228 2.41393 2.51617 2.31835 2.54006L2.27057 2.56396L2.19888 2.63564C2.19888 2.65953 2.17499 2.65954 2.15109 2.68343C2.05552 2.8268 1.93604 2.94628 1.84046 3.08965L1.38646 3.78259L2.1272 3.40027C2.24667 3.40027 2.34225 3.35249 2.41393 3.32859Z" fill="#121212"/>
<path d="M4.37325 1.70365L4.44493 1.72755C4.75556 1.84702 5.23346 1.9665 5.83083 1.9665C6.45209 1.9665 7.04946 1.82313 7.64683 1.58418L8.38756 1.22576L7.88578 1.0585C7.74241 1.01071 7.59904 0.962921 7.43177 0.939026H7.36009L7.28841 0.962915C7.21672 0.98681 7.14503 1.0346 7.07335 1.0585C6.35651 1.32134 5.63967 1.36913 4.94672 1.17797C4.87504 1.15408 4.80335 1.13018 4.73167 1.10628L4.65999 1.08239L4.5883 1.10628C4.44493 1.15407 4.30156 1.20187 4.1582 1.27355L3.60861 1.5125L4.18209 1.67976C4.22988 1.65586 4.30156 1.67976 4.37325 1.70365Z" fill="#121212"/>
</svg>
